# xmcd
#
# Track frame offsets:
#	150
#	15912
#	30489
#	41292
#	51864
#	61792
#	72975
#	85466
#	99348
#	111266
#
# Disc length: 1639 seconds
#
# Revision: 0
# Processed by: cddbd v1.5.2PL0 Copyright (c) Steve Scherf et al.
# Submitted via: dBpowerAMP V4.0
#
DISCID=7306650a
DTITLE=Marcel Martel - Bonsoir chérie
DYEAR=1900
DGENRE=Country
TTITLE0=Hello Central
TTITLE1=Bonsoir chérie
TTITLE2=Le Chemin du retour
TTITLE3=Plus d'importance maintenant
TTITLE4=Pourquoi?
TTITLE5=Moi j'bois d'la bière
TTITLE6=Profitons du bon temps
TTITLE7=L'Ermite
TTITLE8=Rester ensemble
TTITLE9=Vis ta vie
EXTD=Country Québécois, 1982
EXTT0=
EXTT1=
EXTT2=
EXTT3=
EXTT4=
EXTT5=
EXTT6=
EXTT7=
EXTT8=
EXTT9=
PLAYORDER=
